<svg width="20" height="20" viewBox="0 0 20 20" fill="none" xmlns="http://www.w3.org/2000/svg">
<path d="M4.5325 8.54C4.4525 8.44992 4.40025 8.33863 4.38202 8.21954C4.3638 8.10045 4.38038 7.97863 4.42978 7.86875C4.47917 7.75887 4.55928 7.6656 4.66044 7.60018C4.76161 7.53476 4.87952 7.49997 5 7.5H15C15.1205 7.49997 15.2384 7.53476 15.3396 7.60018C15.4407 7.6656 15.5208 7.75887 15.5702 7.86875C15.6196 7.97863 15.6362 8.10045 15.618 8.21954C15.5998 8.33863 15.5475 8.44992 15.4675 8.54L10.4675 14.165C10.4089 14.2311 10.3369 14.284 10.2563 14.3202C10.1757 14.3565 10.0884 14.3752 10 14.3752C9.91165 14.3752 9.8243 14.3565 9.74371 14.3202C9.66313 14.284 9.59114 14.2311 9.5325 14.165L4.5325 8.54V8.54Z" fill="white"/>
<path d="M0 2.5C0 1.83696 0.263392 1.20107 0.732233 0.732233C1.20107 0.263392 1.83696 0 2.5 0L17.5 0C18.163 0 18.7989 0.263392 19.2678 0.732233C19.7366 1.20107 20 1.83696 20 2.5V17.5C20 18.163 19.7366 18.7989 19.2678 19.2678C18.7989 19.7366 18.163 20 17.5 20H2.5C1.83696 20 1.20107 19.7366 0.732233 19.2678C0.263392 18.7989 0 18.163 0 17.5V2.5ZM18.75 2.5C18.75 2.16848 18.6183 1.85054 18.3839 1.61612C18.1495 1.3817 17.8315 1.25 17.5 1.25H2.5C2.16848 1.25 1.85054 1.3817 1.61612 1.61612C1.3817 1.85054 1.25 2.16848 1.25 2.5V17.5C1.25 17.8315 1.3817 18.1495 1.61612 18.3839C1.85054 18.6183 2.16848 18.75 2.5 18.75H17.5C17.8315 18.75 18.1495 18.6183 18.3839 18.3839C18.6183 18.1495 18.75 17.8315 18.75 17.5V2.5Z" fill="white"/>
</svg>
