<svg width="20" height="20" viewBox="0 0 20 20" fill="none" xmlns="http://www.w3.org/2000/svg">
<g clip-path="url(#clip0_114_2)">
<path d="M15.4675 11.46C15.5475 11.5501 15.5998 11.6614 15.618 11.7805C15.6362 11.8995 15.6196 12.0214 15.5702 12.1312C15.5208 12.2411 15.4407 12.3344 15.3396 12.3998C15.2384 12.4652 15.1205 12.5 15 12.5L5 12.5C4.87952 12.5 4.76161 12.4652 4.66044 12.3998C4.55928 12.3344 4.47917 12.2411 4.42978 12.1312C4.38038 12.0214 4.3638 11.8995 4.38202 11.7805C4.40025 11.6614 4.4525 11.5501 4.5325 11.46L9.5325 5.835C9.59114 5.76891 9.66313 5.71601 9.74371 5.67978C9.8243 5.64355 9.91165 5.62481 10 5.62481C10.0884 5.62481 10.1757 5.64355 10.2563 5.67978C10.3369 5.71601 10.4089 5.76891 10.4675 5.835L15.4675 11.46V11.46Z" fill="white"/>
<path d="M20 17.5C20 18.163 19.7366 18.7989 19.2678 19.2678C18.7989 19.7366 18.163 20 17.5 20L2.5 20C1.83696 20 1.20107 19.7366 0.732234 19.2678C0.263393 18.7989 0 18.163 0 17.5L0 2.5C0 1.83696 0.263393 1.20107 0.732234 0.732234C1.20107 0.263393 1.83696 0 2.5 0L17.5 0C18.163 0 18.7989 0.263393 19.2678 0.732234C19.7366 1.20107 20 1.83696 20 2.5L20 17.5ZM1.25 17.5C1.25 17.8315 1.3817 18.1495 1.61612 18.3839C1.85054 18.6183 2.16848 18.75 2.5 18.75L17.5 18.75C17.8315 18.75 18.1495 18.6183 18.3839 18.3839C18.6183 18.1495 18.75 17.8315 18.75 17.5L18.75 2.5C18.75 2.16848 18.6183 1.85054 18.3839 1.61612C18.1495 1.3817 17.8315 1.25 17.5 1.25L2.5 1.25C2.16848 1.25 1.85054 1.3817 1.61612 1.61612C1.3817 1.85054 1.25 2.16848 1.25 2.5L1.25 17.5Z" fill="white"/>
</g>
<defs>
<clipPath id="clip0_114_2">
<rect width="20" height="20" fill="white" transform="translate(20 20) rotate(-180)"/>
</clipPath>
</defs>
</svg>
